<!-- Generated by IcoMoon.io -->
<svg version="1.1" xmlns="http://www.w3.org/2000/svg" width="100" height="100" viewBox="0 0 100 100">
<title>chat-alt-fill</title>
<path fill="#fff" d="M50 62.5c13.806 0 24.988-11.194 24.988-25v-12.5c0-17.253-12.487-25-24.988-25h-25.012c-12.488 0-24.988 6.641-24.988 25 0 17.969 12.5 25 24.988 25h12.512c6.897 0 12.5 5.603 12.5 12.5zM81.188 38.166c-0.366 16.913-14.194 30.584-31.188 30.584h-6.25v-6.25c0-3.45-2.806-6.25-6.25-6.25h-11.878c-0.375 1.866-0.606 3.863-0.622 6.019v12.972c0.131 13.694 11.275 24.759 25 24.759 0-6.909 5.603-12.5 12.5-12.5h12.487c12.513 0 25.013-7.031 25.013-25 0-15.291-8.703-22.375-18.813-24.334z"></path>
</svg>
